<svg height="480pt" viewBox="0 -4 480.00012 480" width="480pt" xmlns="http://www.w3.org/2000/svg"><path d="m476.679688 337.503906c-2.082032-1.507812-4.765626-1.914062-7.199219-1.085937l-22.777344 7.582031h-27.390625l-43.710938-43.71875-11.664062-93.503906c-2.742188-22.171875-21.597656-38.8125-43.9375-38.777344h-44.265625c-2.394531-3.273438-3.703125-7.222656-3.734375-11.28125v-17.039062c10.171875-9.074219 15.988281-22.050782 16-35.679688v-32c-.007812-13.777344-5.953125-26.878906-16.3125-35.960938.1875-1.339843.292969-2.6875.3125-4.039062 0-17.671875-14.328125-32-32-32s-32 14.328125-32 32c.023438 1.339844.125 2.675781.3125 4-10.371094 9.089844-16.316406 22.210938-16.3125 36v32c.011719 13.628906 5.832031 26.605469 16 35.679688v17.039062c-.03125 4.058594-1.339844 8.007812-3.734375 11.28125h-44.265625c-22.335938-.035156-41.191406 16.601562-43.9375 38.769531l-11.664062 93.511719-43.710938 43.71875h-27.390625l-22.769531-7.582031c-2.433594-.828125-5.117188-.421875-7.199219 1.085937-2.089844 1.503906-3.328125 3.921875-3.328125 6.496094v32c-.015625 3.046875 1.699219 5.839844 4.425781 7.199219l11.132813 5.601562c-6.78125 6.234375-11.628906 14.285157-13.957032 23.199219-.25.910156-.539062 1.800781-.722656 2.761719-.253906 1.34375-.421875 2.679687-.640625 4.351562-.1406248.996094-.191406 2-.1484372 3.007813v.535156c0 .449219-.0664063.886719-.0664063 1.34375 0 .679688.0742187 1.34375.1054685 2.015625.03125.671875 0 1.128906.078125 1.6875.089844 1.097656.226563 2.175781.378907 3.25.078124.511719.140624 1.023437.238281 1.527344.207031 1.167969.464843 2.304687.761719 3.441406.101562.398437.191406.796875.308593 1.199219.34375 1.222656.753907 2.398437 1.195313 3.605468.117187.304688.222656.617188.34375.929688.488281 1.222656 1.03125 2.398438 1.597656 3.59375.136719.269531.257812.550781.402344.796875.589844 1.144531 1.246094 2.257813 1.925781 3.34375.191406.296875.359375.609375.554687.90625.644532.992187 1.359376 1.933594 2.078126 2.863281.289062.375.542968.800782.847656 1.136719.550781.679687 1.152344 1.304687 1.734375 1.953125.585937.644531.9375 1.101562 1.457031 1.597656.746094.753906 1.488281 1.417969 2.234375 2.082032l1.214844 1.070312c.167969.144531.375.238281.542969.375 1.738281 1.386719 3.574218 2.648438 5.488281 3.777344.402343.238281.800781.503906 1.191406.726562 2.058594 1.140625 4.199219 2.128906 6.402344 2.953125.40625.152344.796875.304688 1.222656.449219 2.277344.792969 4.613281 1.410156 6.984375 1.847656.359375.0625.726562.101563 1.085938.167969 2.511718.433594 5.054687.667969 7.601562.703125h384c1.671875-.003906 3.34375-.089844 5.007812-.265625.113282 0 .214844 0 .320313-.046875 1.550781-.175781 3.089844-.414062 4.59375-.726562l.46875-.128907c1.441406-.320312 2.875-.6875 4.265625-1.136719.296875-.09375.574219-.222656.863281-.320312 1.234375-.421875 2.449219-.871094 3.632813-1.390625.472656-.199219.929687-.449219 1.398437-.671875.953125-.457031 1.914063-.914062 2.832031-1.433594.625-.34375 1.226563-.734375 1.832032-1.109375.609375-.378906 1.441406-.890625 2.136718-1.378906.695313-.488281 1.382813-1.015625 2.066407-1.542969.550781-.421875 1.101562-.855468 1.597656-1.3125.71875-.605468 1.410156-1.238281 2.089844-1.894531.460937-.4375.917969-.886719 1.367187-1.34375.328125-.351563.695313-.65625 1.015625-1.015625.320313-.359375.601563-.753906.910157-1.113281.433593-.496094.800781-1.007813 1.242187-1.519531.566406-.71875 1.121094-1.449219 1.648437-2.199219.429688-.617188.839844-1.265625 1.246094-1.90625.410156-.640625.839844-1.328125 1.226563-2.015625.488281-.855469.925781-1.742188 1.359375-2.640625.238281-.503907.503906-1 .726562-1.511719.519532-1.167969.976563-2.398438 1.402344-3.589844.09375-.28125.207031-.546875.300781-.800781.46875-1.445313.875-2.921875 1.21875-4.433594l.0625-.246093c.335938-1.550782.601563-3.128907.800781-4.730469v-.191407c.160157-1.382812.230469-2.796874.261719-4.222656 0-.289062 0-.566406 0-.855468 0-.097657 0-.183594 0-.28125 0-1.121094-.09375-2.222657-.167969-3.328126 0-.457031 0-.902343-.054687-1.359374v-.113282c-.054687-.527344-.160156-1.03125-.230469-1.550781-.136718-1.015625-.257812-2.023437-.464844-3.015625-2-9.96875-7.125-19.039062-14.625-25.902344l11.136719-5.601562c2.742188-1.328125 4.492188-4.101563 4.511719-7.152344v-32c.003906-2.574219-1.234375-4.992188-3.320312-6.496094zm-236.679688-201.503906c-17.671875 0-32-14.328125-32-32v-21.648438c3.691406-6.390624 10.507812-10.335937 17.886719-10.351562h28.226562c7.378907.015625 14.195313 3.960938 17.886719 10.351562v21.648438c0 17.671875-14.328125 32-32 32zm0-96c12.738281.011719 24.257812 7.578125 29.328125 19.265625-4.78125-2.15625-9.96875-3.269531-15.214844-3.265625h-28.226562c-5.238281 0-10.421875 1.109375-15.199219 3.265625 5.070312-11.683594 16.578125-19.246094 29.3125-19.265625zm0-24c6.65625.023438 12.605469 4.164062 14.9375 10.398438-9.699219-3.207032-20.175781-3.207032-29.875 0 2.332031-6.234376 8.28125-10.375 14.9375-10.398438zm0 136c5.453125-.015625 10.867188-.960938 16-2.800781v7.519531c.027344 8.144531 2.851562 16.035156 8 22.34375v4.9375c-.011719 1.492188-.160156 2.976562-.449219 4.441406-.0625.335938-.152343.671875-.230469 1-.230468.964844-.527343 1.917969-.878906 2.847656-.273437.695313-.554687 1.382813-.867187 2.03125-.308594.648438-.597657 1.144532-.925781 1.695313-.984376 1.742187-2.183594 3.355469-3.566407 4.800781-.128906.136719-.265625.253906-.402343.382813-1.402344 1.335937-2.960938 2.488281-4.648438 3.441406-.605469.359375-1.214844.710937-1.863281 1.015625-.519531.246094-1.039063.472656-1.601563.679688-.882812.339843-1.789062.621093-2.710937.847656-.742188.175781-1.488281.335937-2.238281.449218-.753907.109376-1.511719.183594-2.28125.230469-.898438.046875-1.796876.046875-2.695313 0-1.074219-.03125-2.144531-.136719-3.199219-.320312-.160156 0-.320312-.070313-.480468-.09375-.160157-.023438-.199219-.058594-.3125-.082031-1.144532-.257813-2.261719-.605469-3.351563-1.039063l-.28125-.105469-.261719-.109375c-9.078125-4.277343-14.835937-13.441406-14.753906-23.472656v-3.578125c5.148438-6.308594 7.976562-14.199219 8-22.34375v-7.519531c5.132812 1.839843 10.546875 2.785156 16 2.800781zm-57.761719 32h17.761719c0 1.265625.257812 2.464844.375 3.695312.050781.425782.066406.847657.128906 1.265626 1.773438 14.347656 11.160156 26.613281 24.542969 32.078124l.386719.160157c.941406.34375 1.886718.679687 2.917968 1.023437.875.273438 1.761719.496094 2.65625.671875.472657.105469.9375.25 1.417969.335938 1.234375.277343 2.484375.472656 3.742188.585937 1.207031.105469 2.398437.160156 3.625.160156h.207031c.289062 0 .550781-.082031.800781-.089843 2.101563-.046875 4.199219-.257813 6.269531-.628907.800782-.144531 1.546876-.335937 2.320313-.523437.90625-.214844 1.800781-.335937 2.714844-.605469.703125-.242187 1.277343-.585937 1.964843-.847656 1.011719-.386719 1.984376-.800781 2.953126-1.273438.617187-.289062 1.34375-.503906 1.921874-.800781.796876-.445312 1.597657-1.015625 2.398438-1.527343.480469-.304688.960938-.574219 1.425781-.894532 3.839844-2.675781 7.175781-6.007812 9.863281-9.839844.398438-.578124.75-1.175781 1.121094-1.769531.484375-.757812 1.023438-1.472656 1.453125-2.28125.320313-.605469.472657-1.183593.761719-1.78125.503906-1.066406.953125-2.136719 1.367188-3.25.238281-.640625.609374-1.289062.800781-1.933593.28125-.875.414062-1.792969.625-2.691407.152343-.636719.320312-1.269531.445312-1.917969.488281-2.410156.753907-4.859374.792969-7.320312h17.761719l9.4375 37.855469c2.890625 11.425781 2.074219 23.472656-2.335938 34.402343l-16.304687 40.796876c-5.9375 14.851562-5.242188 31.535156 1.914062 45.839843l16.582032 33.105469h-134.109376l16.566407-33.144531c7.15625-14.304688 7.851562-30.988281 1.914062-45.839844l-16.304687-40.800781c-4.410156-10.925782-5.230469-22.972656-2.34375-34.398438zm103.914063 220.800781-41.734375 9.933594c-8.148438-13.125-24.542969-18.503906-38.882813-12.757813l-9.429687 3.777344c-.699219-.4375-1.460938-.761718-2.257813-.960937l-53.695312-12.792969h199.710937zm-123.863282-82.039062 6.550782-39.121094 7.71875 19.3125c4.246094 10.609375 3.753906 22.527344-1.359375 32.75l-20.144531 40.296875h-54.160157l42.585938-25.535156c10.03125-6.027344 16.910156-16.15625 18.808593-27.703125zm162.65625 53.238281-20.144531-40.296875c-5.113281-10.222656-5.605469-22.140625-1.359375-32.75l8.183594-20.457031 6.175781 33.902344c1.769531 10.425781 7.6875 19.691406 16.398438 25.679687l48.433593 33.921875zm-299.058593 0-9.886719-4.945312v-15.949219l13.472656 4.480469c.8125.273437 1.667969.414062 2.527344.414062h32c2.121094 0 4.15625-.84375 5.65625-2.34375l48-48c1.257812-1.257812 2.058594-2.898438 2.28125-4.664062l12-96.25c.867188-6.847657 4.199219-13.148438 9.375-17.71875 5.160156-4.550782 11.808594-7.050782 18.6875-7.023438h5.753906l-8.503906 33.984375c-2.910156 11.761719-2.78125 24.070313.375 35.769531l-11.121094 66.398438c-1.128906 6.921875-5.25 12.992187-11.265625 16.601562l-65.453125 39.246094zm16.082031 79.390625c-.578125-.109375-1.121094-.292969-1.679688-.4375-1.425781-.335937-2.828124-.769531-4.191406-1.304687-.464844-.183594-.898437-.398438-1.34375-.609376-1.414062-.632812-2.773437-1.371093-4.074218-2.207031-.367188-.238281-.734376-.488281-1.09375-.742187-1.753907-1.25-3.375-2.671875-4.84375-4.242188-1.25-1.316406-2.390626-2.734375-3.414063-4.238281-.511719-.800781-.878906-1.601563-1.328125-2.402344-.589844-1.035156-1.125-2.105469-1.601562-3.199219-.390626-.976562-.636719-2.015624-.941407-3.039062-.339843-1.050781-.625-2.121094-.847656-3.199219-.167969-.9375-.203125-1.921875-.289063-2.882812-.144531-1.289063-.210937-2.585938-.199218-3.886719.113281-3.355469.757812-6.671875 1.910156-9.824219.328125-.871093.632812-1.769531 1.039062-2.609375.097657-.207031.226563-.398437.328126-.613281 5.289062-9.894531 15.128906-16.527344 26.28125-17.722656.402343 0 .800781-.101563 1.175781-.117188.945312-.058593 1.945312-.113281 2.824219-.113281h21.382812l99.9375 23.785156-20.535156 8.214844h-6.464844c-13.253906 0-24 10.746094-24 24 .027344 2.730469.523438 5.4375 1.472656 8h-73.472656c-2.023438-.011719-4.046875-.214844-6.03125-.609375zm102.03125.609375c-4.417969 0-8-3.582031-8-8s3.582031-8 8-8h8c1.015625 0 2.023438-.191406 2.96875-.566406l56.511719-22.632813c4.054687-1.628906 8.597656-1.507812 12.5625.328125 3.960937 1.835938 6.992187 5.222656 8.375 9.367188 1.308593 3.929687 5.398437 6.210937 9.429687 5.257812l38.152344-9.058594v33.304688zm152 0v-37.113281l112.9375-26.886719h21.34375c12.414062-.074219 23.894531 6.574219 30.015625 17.375l.144531.257812c.664063 1.316407 1.234375 2.675782 1.710938 4.070313.28125.800781.550781 1.601563.800781 2.480469.242187.957031.4375 1.925781.582031 2.90625.171875 1.105468.28125 2.21875.335938 3.335937.0625 1.128907.0625 2.261719 0 3.390625-.0625 1.085938-.160156 2.175782-.328125 3.238282-.171875 1.050781-.398438 2.09375-.679688 3.121093-.269531 1.082031-.601562 2.152344-.984375 3.199219-.371094.960938-.796875 1.902344-1.269531 2.816406-.484375.988282-1.015625 1.949219-1.601563 2.878906-.582031.921876-1.273437 1.785157-1.953124 2.65625-.679688.875-1.261719 1.648438-1.972657 2.402344-.839843.84375-1.726562 1.648438-2.648437 2.398438-.722656.601562-1.394532 1.242187-2.160156 1.777344-1.171876.78125-2.394532 1.480468-3.65625 2.09375-.632813.328124-1.21875.730468-1.875 1.019531-1.632813.671875-3.320313 1.207031-5.046876 1.597656-.375.097656-.71875.265625-1.101562.34375-2.171875.445313-4.378906.660156-6.59375.640625zm134.28125-80h-19.761719l-67.199219-47.054688c-5.203124-3.582031-8.726562-9.117187-9.777343-15.34375l-11-60.378906c3.003906-11.53125 3.074219-23.632812.199219-35.199218l-8.503907-34.023438h5.761719c6.878906-.027344 13.527344 2.472656 18.6875 7.023438 5.179688 4.574218 8.511719 10.875 9.375 17.730468l12 96.238282c.222656 1.765624 1.023438 3.40625 2.28125 4.664062l48 48c1.5 1.5 3.535156 2.34375 5.65625 2.34375h32c.859375 0 1.714844-.140625 2.527344-.414062l13.472656-4.480469v15.949219l-9.886719 4.945312zm0 0" fill="#da8661"/></svg>
